<svg xmlns="http://www.w3.org/2000/svg" viewBox="0 0 704 1530" width="704" height="1530">
  <defs>
    <linearGradient id="michiGrad" x1="0" y1="0" x2="1" y2="1">
      <stop offset="0%" stop-color="#0B3C5D"/>
      <stop offset="55%" stop-color="#1D7EA8"/>
      <stop offset="100%" stop-color="#00C2A8"/>
    </linearGradient>
    <linearGradient id="shine" x1="0" y1="0" x2="0" y2="1">
      <stop offset="0%" stop-color="#FFFFFF" stop-opacity="0.42"/>
      <stop offset="100%" stop-color="#FFFFFF" stop-opacity="0"/>
    </linearGradient>
  </defs>
  <path d="M 358.00 432.00 L 444.00 500.00 L 550.00 710.00 L 578.00 900.00 L 522.00 1036.00 L 434.00 1118.00 L 352.00 1162.00 L 352.00 1162.00 L 270.00 1118.00 L 182.00 1036.00 L 126.00 900.00 L 154.00 710.00 L 260.00 500.00 Z" fill="url(#michiGrad)"/>
  <path d="M 358.00 432.00 L 444.00 500.00 L 550.00 710.00 L 578.00 900.00 L 522.00 1036.00 L 434.00 1118.00 L 352.00 1162.00 L 352.00 1162.00 L 270.00 1118.00 L 182.00 1036.00 L 126.00 900.00 L 154.00 710.00 L 260.00 500.00 Z" fill="none" stroke="#062A42" stroke-width="18" stroke-opacity="0.35"/>
  <path d="M 352.00 560.00 L 422.00 650.00 L 460.00 790.00 L 430.00 920.00 L 364.00 1010.00 L 340.00 1010.00 L 274.00 920.00 L 244.00 790.00 L 282.00 650.00 Z" fill="url(#shine)"/>
</svg>
